ply
format ascii 1.0
element vertex 453
property float x
property float y
property float z
end_header
-0.0312216002494096756 0.126304000616073608 0.00514924013987183571
-0.0446773990988731384 0.131203994154930115 0.00570478988811373711
-0.0683010965585708618 0.144828006625175476 0.0413688011467456818
-0.00600095000118017197 0.130398005247116089 0.0178986005485057831
-0.01735679991543293 0.127612993121147156 0.00526884989812970161
0.0330513007938861847 0.107033997774124146 0.031954299658536911
0.0400873012840747833 0.105209998786449432 0.0173419006168842316
-0.030180199071764946 0.106321997940540314 0.0399744994938373566
0.030419299378991127 0.118571996688842773 0.0188068002462387085
-0.0640821978449821472 0.159391000866889954 -0.0169095993041992188
0.0447046011686325073 0.0927876979112625122 0.00507585005834698677
-0.0316753983497619629 0.170395001769065857 -0.00635022995993494987
-0.0848523005843162537 0.134077996015548706 0.0470177009701728821
-0.068854697048664093 0.122051998972892761 0.0517568998038768768
0.00595474988222122192 0.131024003028869629 0.0178251992911100388
0.0404628999531269073 0.105141997337341309 0.00640978012233972549
0.0387342013418674469 0.102160997688770294 -0.00463111978024244308
-0.091451302170753479 0.134136006236076355 0.0171025991439819336
-0.0818720981478691101 0.107165999710559845 0.0310159996151924133
-0.067217998206615448 0.156155005097389221 0.0178862996399402618
-0.0795686990022659302 0.152875006198883057 0.0299311000853776932
0.00596007006242871284 0.122504003345966339 0.0346271991729736328
-0.0516317002475261688 0.145000994205474854 0.0184803996235132217
-0.0779780969023704529 0.13255000114440918 0.0513494014739990234
-0.00590708013623952866 0.127933993935585022 0.0274622999131679535
-0.0479133017361164093 0.129300996661186218 0.0269645992666482925
-0.082427002489566803 0.0928134024143218994 -0.00556046003475785255
0.0174400005489587784 0.127693995833396912 0.0185348000377416611
-0.090686798095703125 0.120305001735687256 0.00668040011078119278
-0.0294038001447916031 0.179030001163482666 -0.00787958968430757523
-0.0797891020774841309 0.143759995698928833 0.0426994003355503082
-0.0182879995554685593 0.10832899808883667 0.0415097996592521667
-0.0202325992286205292 0.181845992803573608 -0.0183274000883102417
-0.0377039015293121338 0.167987003922462463 -0.0130390999838709831
0.00582164013758301735 0.128059998154640198 0.027901599183678627
-0.043538898229598999 0.130014002323150635 0.017533300444483757
0.0188698992133140564 0.119861997663974762 0.0324090011417865753
-0.0440100990235805511 0.167034998536109924 0.00231897993944585323
-0.0898109972476959229 0.132401004433631897 0.00705743022263050079
-0.0573519989848136902 0.144988998770713806 0.0315195992588996887
0.0442622005939483643 0.0934526026248931885 0.017641700804233551
0.0412342995405197144 0.0921730995178222656 0.028560299426317215
-0.0563952997326850891 0.154565006494522095 0.0168779995292425156
-0.0206135008484125137 0.159773007035255432 -0.00717522017657756805
-0.0729892998933792114 0.0656116008758544922 0.0181693006306886673
-0.067396700382232666 0.155256003141403198 0.00581389013677835464
-0.0904863998293876648 0.11861100047826767 0.0412148013710975647
0.0273141991347074509 0.117964997887611389 0.0286190994083881378
0.0419070012867450714 0.0916386023163795471 -0.00556945009157061577
-0.0702108964323997498 0.165303006768226624 -0.0194661002606153488
-0.00618469994515180588 0.122729003429412842 0.0347869992256164551
0.0300137996673583984 0.0932786017656326294 0.0421475991606712341
-0.0175129007548093796 0.162126004695892334 -0.0145488996058702469
-0.0763977020978927612 0.171290993690490723 -0.0411021001636981964
-0.0854227021336555481 0.105385996401309967 0.00339486007578670979
0.0370430983603000641 0.110443003475666046 0.0207228995859622955
-0.0065973200835287571 0.0427284985780715942 0.0469391010701656342
0.00639794021844863892 0.0437005981802940369 0.0468260012567043304
-0.0559246987104415894 0.157606005668640137 0.00656455010175704956
-0.0911448970437049866 0.118816003203392029 0.0298442002385854721
-0.0595109015703201294 0.128352001309394836 0.0399626009166240692
-0.0176334995776414871 0.127605006098747253 0.0179366003721952438
-0.0666330009698867798 0.153831005096435547 0.0308702997863292694
-0.043641798198223114 0.169438004493713379 -0.00550225982442498207
-0.0572758987545967102 0.0432429984211921692 0.0428620018064975739
-0.0763773024082183838 0.157221004366874695 -0.0168888997286558151
-0.0434461012482643127 0.156049996614456177 0.0061579500325024128
-0.0427118018269538879 0.0421645008027553558 0.042700398713350296
-0.0254200994968414307 0.0886621996760368347 0.0503826998174190521
-0.014178999699652195 0.126269996166229248 0.02664170041680336
-0.0882581993937492371 0.0898687019944190979 0.00696625001728534698
-0.0688695013523101807 0.157773002982139587 -0.00687592988833785057
-0.0679676011204719543 0.142876997590065002 -0.00757643021643161774
0.0188538003712892532 0.106293000280857086 0.0416902005672454834
-0.0364869982004165649 0.171224996447563171 0.000545036979019641876
-0.066435202956199646 0.117197997868061066 -0.00987161044031381607
-0.0682606026530265808 0.17039799690246582 -0.0436994992196559906
-0.0909250006079673767 0.146050006151199341 0.0190382003784179688
0.00678621977567672729 0.115841001272201538 0.0388077013194561005
0.03101390041410923 0.0930695980787277222 -0.0177979990839958191
0.00569760007783770561 0.105889998376369476 0.0435510985553264618
-0.0706518962979316711 0.130630001425743103 0.0502496995031833649
0.00597460009157657623 0.130858004093170166 0.0057947901077568531
0.0184217002242803574 0.0423181988298892975 0.042477000504732132
0.0147876003757119179 0.0909747034311294556 0.0509658008813858032
-0.00598231982439756393 0.115409001708030701 0.040202699601650238
-0.0811311975121498108 0.117972001433372498 -0.00359453004784882069
-0.0787032023072242737 0.144273996353149414 -0.00389051996171474457
0.00581987993791699409 0.10622599720954895 -0.0208967998623847961
-0.0192760992795228958 0.119852997362613678 0.032806098461151123
-0.00593115994706749916 0.130215004086494446 0.00595400016754865646
-0.0893322005867958069 0.1427450031042099 0.0290325991809368134
-0.00762538006529211998 0.123273000121116638 -0.00981555040925741196
-0.0692263022065162659 0.178921997547149658 -0.0542742982506752014
-0.0298756994307041168 0.124251998960971832 0.0209673997014760971
-0.0848266035318374634 0.148986995220184326 0.0327696986496448517
-0.0888516008853912354 0.0909722968935966492 0.0179034005850553513
-0.0305879004299640656 0.122383996844291687 -0.00635770987719297409
-0.0307197999209165573 0.117989003658294678 0.0306166000664234161
-0.0780612006783485413 0.120653003454208374 0.0513999015092849731
0.0332713983952999115 0.108497999608516693 -0.00743194995447993279
-0.0677111968398094177 0.0928917974233627319 -0.0168814007192850113
-0.0756660029292106628 0.0911817029118537903 -0.0136967003345489502
-0.0824220031499862671 0.0951121002435684204 0.0310878008604049683
-0.0856984034180641174 0.136903002858161926 0.00192121998406946659
-0.0292803999036550522 0.041774701327085495 0.0513969995081424713
-0.0177319999784231186 0.0423864014446735382 0.0516839995980262756
-0.0656986981630325317 0.171007007360458374 -0.0566440001130104065
-0.0298523008823394775 0.170904994010925293 -0.016560899093747139
-0.0562501996755599976 0.135012999176979065 0.0330455005168914795
-0.0666126981377601624 0.133020997047424316 0.0447044000029563904
-0.0425379015505313873 0.155441001057624817 -0.00749352993443608284
-0.054530799388885498 0.0714602991938591003 0.039704199880361557
-0.0413158982992172241 0.0906922966241836548 -0.0225881002843379974
-0.0172876007854938507 0.0921773985028266907 0.053621198982000351
-0.00598119013011455536 0.0940307974815368652 0.0542642995715141296
0.0423724018037319183 0.0672563016414642334 0.0295800995081663132
0.0285740997642278671 0.116908997297286987 -0.00391772016882896423
-0.0331811010837554932 0.0450743995606899261 0.0451145991683006287
-0.0539401993155479431 0.11856599897146225 0.035373099148273468
0.0422724001109600067 0.0795546025037765503 -0.00579460989683866501
0.0297273006290197372 0.0425501987338066101 0.0304975006729364395
-0.0315639004111289978 0.0959331020712852478 -0.023680100217461586
0.0381803996860980988 0.105121001601219177 0.0266947001218795776
-0.0284988004714250565 0.0904920026659965515 -0.0290853995829820633
-0.0173189006745815277 0.0437941998243331909 0.0432695001363754272
0.0037675399798899889 0.0477550998330116272 0.0502036996185779572
0.0432672984898090363 0.0458290986716747284 0.0278251003473997116
-0.0233321990817785263 0.181238994002342224 -0.0112893003970384598
-0.0056258002296090126 0.0565037988126277924 0.0538818016648292542
0.00529430992901325226 0.0556798018515110016 0.0532880984246730804
-0.0883219018578529358 0.105756998062133789 0.0172982998192310333
-0.056637398898601532 0.0470184013247489929 0.0305809006094932556
-0.0296243000775575638 0.0543188005685806274 0.0398950986564159393
-0.00597407016903162003 0.105897001922130585 0.0440668985247612
-0.0214121993631124496 0.0546975992619991302 0.0446409992873668671
-0.0161488000303506851 0.0574362985789775848 0.0509039983153343201
-0.0568304993212223053 0.146392002701759338 -0.00264260009862482548
-0.0931465998291969299 0.119066998362541199 0.0179948005825281143
-0.0618619993329048157 0.158417001366615295 -0.029302600771188736
-0.0855858027935028076 0.106839999556541443 0.0217289999127388
0.0336642004549503326 0.0540543012320995331 0.0350840985774993896
0.0427710004150867462 0.0560351014137268066 0.0315590016543865204
-0.0434589013457298279 0.117191001772880554 0.0317043997347354889
-0.0680961981415748596 0.156720995903015137 -0.0426173992455005646
0.0272384006530046463 0.103156000375747681 0.0397058017551898956
-0.0293931998312473297 0.178535997867584229 -0.0145562998950481415
-0.0762697011232376099 0.0912244990468025208 0.0383418984711170197
-0.0191284995526075363 0.0985952019691467285 0.0456675998866558075
-0.0530910007655620575 0.0567401982843875885 0.02939629927277565
-0.0431977994740009308 0.0555776990950107574 0.0390838012099266052
-0.0833055004477500916 0.115643002092838287 0.0468280017375946045
0.01443449966609478 0.127081006765365601 0.0262969993054866791
-0.0388913005590438843 0.123760998249053955 0.0249777995049953461
-0.0594359003007411957 0.119905002415180206 0.0399755984544754028
-0.0702332034707069397 0.154262006282806396 -0.0312401000410318375
-0.0574472993612289429 0.15257599949836731 0.0284508001059293747
-0.0480038002133369446 0.0563660003244876862 0.0362663008272647858
-0.0107262004166841507 0.179662004113197327 -0.0277472008019685745
-0.0882292985916137695 0.106066003441810608 0.00846755970269441605
-0.0789939984679222107 0.153983995318412781 0.00651862006634473801
-0.029567500576376915 0.126072004437446594 0.0146337999030947685
-0.0817356035113334656 0.154390007257461548 0.0177331995218992233
-0.0795468986034393311 0.104194000363349915 -0.006202740129083395
-0.0248607993125915527 0.122913002967834473 0.0245428998023271561
-0.0664416030049324036 0.159957006573677063 -0.0533712990581989288
-0.0784877985715866089 0.0705282986164093018 0.0174461007118225098
-0.00967101007699966431 0.173225000500679016 -0.0264944992959499359
-0.056628398597240448 0.0547031015157699585 0.00744563015177845955
-0.0184014998376369476 0.122218996286392212 -0.00775134004652500153
-0.0695952028036117554 0.146412000060081482 -0.0180319994688034058
-0.04125170037150383 0.12319599837064743 -0.00958087015897035599
-0.0684972032904624939 0.148194000124931335 -0.0287260003387928009
-0.0540036000311374664 0.0555430017411708832 0.0177673995494842529
-0.0169203002005815506 0.0682168006896972656 0.0531499013304710388
-0.00607221014797687531 0.0677101984620094299 0.0564500987529754639
0.0070872800424695015 0.0673217996954917908 0.0553369000554084778
-0.0143173998221755028 0.116971001029014587 0.0378360003232955933
0.0538922995328903198 0.0557546988129615784 0.0266244001686573029
0.00517854979261755943 0.0931738018989562988 0.0535872988402843475
-0.0431037992238998413 0.0674388036131858826 0.0407737009227275848
-0.029306899756193161 0.0680733025074005127 0.0410160012543201447
-0.0379555001854896545 0.16195400059223175 -0.01280209980905056
-0.0561164990067481995 0.0654328987002372742 0.0341979004442691803
-0.076170697808265686 0.155559003353118896 -0.00592719996348023415
-0.0552181005477905273 0.122506000101566315 -0.00946488045156002045
0.0177004002034664154 0.10598299652338028 -0.0186138004064559937
0.0534582994878292084 0.0656374990940093994 0.0264336001127958298
-0.0869152024388313293 0.0944155976176261902 0.0029311799444258213
-0.076425701379776001 0.161706998944282532 -0.0297516994178295135
-0.044095899909734726 0.127452999353408813 -0.00327874999493360519
-0.0312918983399868011 0.0798297971487045288 0.0434943996369838715
-0.0549447983503341675 0.106348000466823578 -0.0185624994337558746
-0.0723735019564628601 0.11005699634552002 -0.00943257007747888565
-0.0553659014403820038 0.0919829010963439941 -0.0211782995611429214
-0.048809099942445755 0.0660127028822898865 0.0373958982527256012
-0.047308601438999176 0.145155996084213257 0.00688468990847468376
-0.0803913027048110962 0.129633992910385132 -0.00469755008816719055
-0.0418020002543926239 0.105934001505374908 -0.0198692008852958679
-0.00632139015942811966 0.0931651964783668518 -0.0328935012221336365
-0.00597053999081254005 0.106137998402118683 -0.0222281999886035919
-0.0294826999306678772 0.158292993903160095 -0.00619265995919704437
-0.0177953001111745834 0.106288999319076538 -0.0217771008610725403
-0.0885260999202728271 0.137839004397392273 0.0393964014947414398
-0.0674934983253479004 0.128391996026039124 -0.00863470975309610367
0.0463692992925643921 0.0715128034353256226 0.02167540043592453
-0.040956500917673111 0.11716800183057785 -0.0145808998495340347
-0.0106656001880764961 0.167540997266769409 -0.019901299849152565
-0.0532547011971473694 0.157455995678901672 -0.00281895999796688557
0.00530987977981567383 0.0933128967881202698 -0.0301852002739906311
-0.0773435980081558228 0.0727225989103317261 0.0266545992344617844
-0.062508702278137207 0.149933993816375732 -0.0150319002568721771
-0.0688014030456542969 0.068572603166103363 0.0306649003177881241
-0.0545252002775669098 0.0808477997779846191 -0.020170699805021286
-0.0436768010258674622 0.0789159983396530151 0.0428855009377002716
-0.0185748003423213959 0.078970298171043396 0.0557353012263774872
-0.00599993020296096802 0.0794548019766807556 0.0578007996082305908
0.00706485006958246231 0.0811917036771774292 0.0558186993002891541
-0.0850268974900245667 0.146034002304077148 0.00585953984409570694
0.0370111018419265747 0.110397003591060638 0.00265294010750949383
-0.0683083981275558472 0.0803316012024879456 0.0407108999788761139
-0.0558939985930919647 0.0792594030499458313 0.0435335002839565277
0.038145601749420166 0.0881055966019630432 -0.0138675002381205559
-0.0642836987972259521 0.0396418012678623199 0.0396240018308162689
-0.069869600236415863 0.168536007404327393 -0.0313319005072116852
-0.0617959983646869659 0.155741006135940552 -0.0207922998815774918
-0.0622848011553287506 0.162359997630119324 -0.0396288000047206879
-0.0686864033341407776 0.0923703983426094055 0.0421978011727333069
-0.0493529997766017914 0.139298006892204285 0.0147954998537898064
-0.0784177035093307495 0.110126003623008728 0.0417886003851890564
0.0179415997117757797 0.0792746990919113159 0.0518862009048461914
0.00532732019200921059 0.123660996556282043 -0.00997104961425065994
-0.0556773990392684937 0.0935205966234207153 0.0442069992423057556
-0.0431924015283584595 0.0921154022216796875 0.0432689003646373749
-0.0298625994473695755 0.0940124019980430603 0.044480498880147934
0.0205955002456903458 0.0871130004525184631 0.0492325015366077423
0.0172099992632865906 0.127663001418113708 0.0051259300671517849
-0.0290124993771314621 0.1067190021276474 -0.0207479000091552734
0.018544299528002739 0.0948112010955810547 0.0477586984634399414
-0.00588676007464528084 0.116622000932693481 -0.0160048995167016983
-0.0528190992772579193 0.162649005651473999 0.00296710990369319916
0.0358077995479106903 0.0958594009280204773 -0.0120328003540635109
-0.0912064015865325928 0.131414994597434998 0.029530700296163559
-0.0678739994764328003 0.106951996684074402 0.0403724983334541321
-0.0441635996103286743 0.104918003082275391 0.0401705987751483917
0.00749586010351777077 0.0983500033617019653 0.0488254986703395844
-0.0554961003363132477 0.103898003697395325 0.0411405004560947418
-0.0669044032692909241 0.115717001259326935 0.0473478995263576508
-0.0501523986458778381 0.140325993299484253 0.00258817989379167557
-0.0554508008062839508 0.132420003414154053 -0.00485445000231266022
-0.0147519996389746666 0.181896999478340149 -0.0262781009078025818
-0.0295579992234706879 0.161782994866371155 -0.0143368002027273178
-0.0561853982508182526 0.111276999115943909 0.0373713001608848572
-0.0409840010106563568 0.110495999455451965 0.037088301032781601
-0.0320055000483989716 0.110468000173568726 0.0370437987148761749
0.0250032991170883179 0.110610999166965485 0.0368459001183509827
-0.0469870008528232574 0.147433996200561523 -0.00222535990178585052
-0.0183406993746757507 0.0352361984550952911 0.0507938005030155182
-0.0178405996412038803 0.170484006404876709 -0.0181143004447221756
-0.0569472014904022217 0.0349415987730026245 0.0423717014491558075
0.00583339016884565353 0.0351076014339923859 0.0420913994312286377
-0.0428024008870124817 0.0351574011147022247 0.0416872017085552216
-0.066462002694606781 0.104777000844478607 -0.0148582002148032188
0.0257451999932527542 0.0459137000143527985 0.0381185002624988556
0.0379450991749763489 0.0817167013883590698 -0.0141546996310353279
-0.0844262018799781799 0.0797713994979858398 0.0186331998556852341
0.0532503984868526459 0.0475899986922740936 0.0181903000921010971
0.0186423994600772858 0.0536035001277923584 0.0462150014936923981
0.00732515007257461548 0.118243001401424408 -0.0153011996299028397
-0.0314703993499279022 0.157066002488136292 0.000976215989794582129
0.028622899204492569 0.0568760000169277191 0.0407635010778903961
0.0581591017544269562 0.0550016015768051147 0.0180254001170396805
0.0168639998883008957 0.0899349972605705261 -0.0269104000180959702
0.0145778004080057144 0.0585769005119800568 0.0501690991222858429
0.0367247983813285828 0.0918183997273445129 0.0366248004138469696
-0.0198800992220640182 0.166403993964195251 -0.0112699000164866447
0.0150293996557593346 0.0677357017993927002 0.052067101001739502
0.0210523996502161026 0.0681160986423492432 0.0484346002340316772
0.0298775993287563324 0.0679936036467552185 0.0419172011315822601
0.0368358008563518524 0.0678495019674301147 0.0366410017013549805
0.0574747994542121887 0.0682218000292778015 0.0171425007283687592
0.0316842012107372284 0.0785086974501609802 -0.0192079991102218628
-0.0760271027684211731 0.175704002380371094 -0.0506936982274055481
-0.0655395984649658203 0.0607885010540485382 0.0175707004964351654
-0.080602601170539856 0.0814469978213310242 0.0306515991687774658
0.0189749002456665039 0.121505998075008392 -0.00694565009325742722
0.0306839998811483383 0.0795461013913154602 0.0431507006287574768
0.037188798189163208 0.0792483985424041748 0.0367937013506889343
0.0419365987181663513 0.0795911028981208801 0.0295911002904176712
0.046032000333070755 0.0793694034218788147 0.017769400030374527
-0.0787921026349067688 0.0707772970199584961 0.00685585010796785355
-0.0293987002223730087 0.115916997194290161 -0.0147064998745918274
-0.0869923979043960571 0.113517999649047852 0.00410408992320299149
-0.0142185995355248451 0.174013003706932068 -0.0259806998074054718
0.0174794998019933701 0.0352131016552448273 -0.00592856016010046005
0.016214100643992424 0.0358474999666213989 -0.016213100403547287
0.0193247999995946884 0.0358322001993656158 0.0313206017017364502
0.043554399162530899 0.0411100983619689941 0.00579915987327694893
0.0226191002875566483 0.0406051985919475555 -0.00793544016778469086
0.0191348008811473846 0.0427820011973381042 -0.0192095004022121429
0.0414633005857467651 0.0456301011145114899 -0.00354512990452349186
0.0436924993991851807 0.0411968007683753967 0.0177200008183717728
0.0512872003018856049 0.0463959015905857086 0.00580530986189842224
0.0285777002573013306 0.105181001126766205 -0.014238099567592144
0.0306748002767562866 0.0445123985409736633 -0.0061799301765859127
-0.0184118002653121948 0.0948058962821960449 -0.0307433996349573135
-0.0315483994781970978 0.0343023017048835754 -0.0284081008285284042
0.026038099080324173 0.0475901998579502106 -0.0165794007480144501
0.0554196983575820923 0.0686378031969070435 0.00589653011411428452
0.0520373992621898651 0.0550730004906654358 -0.00248160003684461117
0.0567375011742115021 0.0542224012315273285 0.00512483017519116402
0.0428049005568027496 0.0553286001086235046 -0.00604704022407531738
-0.0620036981999874115 0.167421996593475342 -0.0527165010571479797
0.0341127999126911163 0.0541776008903980255 -0.00948346033692359924
0.0295180007815361023 0.0560563988983631134 -0.0175874996930360794
-0.0177887007594108582 0.115910999476909637 -0.0157837998121976852
-0.041783798485994339 0.0357602015137672424 -0.0264107007533311844
-0.0051893899217247963 0.0430460013449192047 -0.0273333005607128143
-0.0664058998227119446 0.0343649014830589294 -0.00416667992249131203
0.0475413985550403595 0.0712174028158187866 0.00542616983875632286
0.0249138008803129196 0.0825162976980209351 -0.024587700143456459
-0.0299024004489183426 0.0426031015813350677 -0.0283179003745317459
0.02181209996342659 0.0515865013003349304 -0.0236492007970809937
-0.027153700590133667 0.035160798579454422 0.050926700234413147
0.0161180999130010605 0.115630000829696655 -0.0145450998097658157
0.0317380018532276154 0.0679982975125312805 -0.0183531995862722397
0.0418226011097431183 0.0675200968980789185 -0.00551554979756474495
0.0514870993793010712 0.0637279003858566284 -0.00174793996848165989
-0.0893303006887435913 0.128308996558189392 0.0428023003041744232
0.0459384992718696594 0.0796307027339935303 0.00579631980508565903
-0.0705432966351509094 0.149896994233131409 -0.0387318991124629974
-0.0429617017507553101 0.0430242009460926056 -0.0176288001239299774
-0.0719676986336708069 0.177847996354103088 -0.0474603995680809021
-0.0760528966784477234 0.177651003003120422 -0.047145698219537735
0.0304173007607460022 0.118495002388954163 0.00573814008384943008
-0.0771450996398925781 0.167705997824668884 -0.0298797991126775742
0.0202667992562055588 0.0928609967231750488 -0.0237362999469041824
-0.0254814997315406799 0.0798697024583816528 0.0510546006262302399
-0.0650540962815284729 0.0353258997201919556 0.0162237007170915604
-0.0647675991058349609 0.0350791998207569122 0.0294480994343757629
-0.0644266977906227112 0.0414590984582901001 0.0304476004093885422
-0.064319998025894165 0.0352260991930961609 0.0387913994491100311
-0.0675999969244003296 0.0340299010276794434 0.00590491015464067459
-0.0679534003138542175 0.0418587997555732727 0.00668394006788730621
-0.0573497004806995392 0.0431547984480857849 0.0200229007750749588
-0.0634632036089897156 0.0414321012794971466 0.0142051996663212776
-0.0594130009412765503 0.0471381992101669312 0.00628538010641932487
-0.0233833994716405869 0.0656415969133377075 0.0450976006686687469
-0.0635379999876022339 0.0716649964451789856 0.0379462987184524536
-0.0193035993725061417 0.0810128003358840942 -0.038431800901889801
-0.042720600962638855 0.0343557000160217285 -0.0191302001476287842
-0.00690237013623118401 0.0346399992704391479 -0.0202171001583337784
-0.0656787008047103882 0.0408332012593746185 -0.00401793001219630241
-0.0383906997740268707 0.0419217981398105621 -0.0264039002358913422
-0.0556585006415843964 0.0432865992188453674 -0.00758833996951580048
-0.0416784994304180145 0.042027600109577179 -0.00999679043889045715
-0.032229401171207428 0.0446593016386032104 -0.016749899834394455
-0.0307385008782148361 0.0563306994736194611 -0.01851700060069561
-0.0429026000201702118 0.0561897009611129761 -0.0113043002784252167
-0.0550284981727600098 0.0566557012498378754 -0.00531374989077448845
-0.0261857993900775909 0.0568835996091365814 -0.0282694008201360703
-0.0552189014852046967 0.117461003363132477 -0.0133744003251194954
-0.0190657991915941238 0.054669499397277832 -0.0318645983934402466
-0.0687628984451293945 0.0686694011092185974 -0.00654941005632281303
-0.0730504021048545837 0.065420001745223999 0.00552859017625451088
-0.0207234006375074387 0.0672793015837669373 -0.0365529991686344147
-0.0290792006999254227 0.0674260035157203674 -0.0290520992130041122
-0.0328055992722511292 0.0664637014269828796 -0.0195215009152889252
-0.0177608001977205276 0.0343318991363048553 -0.0259141996502876282
-0.0773686990141868591 0.0732571035623550415 -0.00409770989790558815
0.0151615999639034271 0.126103997230529785 -0.00266394997015595436
-0.0845255032181739807 0.080057196319103241 0.005307020153850317
-0.0793517008423805237 0.079855896532535553 -0.00640565017238259315
-0.0309727992862462997 0.0794700980186462402 -0.0312475003302097321
-0.0355143994092941284 0.081800997257232666 -0.0226886998862028122
-0.0681409984827041626 0.0801227018237113953 -0.0164278000593185425
-0.051293201744556427 0.0342269986867904663 -0.0129012996330857277
0.0161924008280038834 0.0804790034890174866 -0.0292173996567726135
-0.0144477998837828636 0.087927401065826416 -0.0380297005176544189
-0.0173157006502151489 0.0432673990726470947 -0.0282905995845794678
-0.0193328000605106354 0.0979250967502593994 -0.0247920006513595581
-0.0555479004979133606 0.0336816012859344482 -0.00619013002142310143
0.00702627003192901611 0.097841799259185791 -0.0246054995805025101
-0.0148892002180218697 0.126067996025085449 -0.00252125994302332401
0.0175205003470182419 0.0552113987505435944 -0.0272755995392799377
-0.00953660998493432999 0.0794103965163230896 -0.0379858985543251038
0.00524266017600893974 0.0391336008906364441 -0.0219470001757144928
0.0175653006881475449 0.0679339021444320679 -0.0289388000965118408
-0.00579070020467042923 0.128077000379562378 -0.0028510501142591238
0.00626556016504764557 0.128047004342079163 -0.00317050004377961159
0.00559978978708386421 0.0346603989601135254 -0.0179318003356456757
0.0298239998519420624 0.0359142012894153595 0.00488976994529366493
0.00625192979350686073 0.0459623001515865326 -0.0263781994581222534
0.0143253002315759659 0.0473483987152576447 -0.025151299312710762
0.00604085996747016907 0.0555072985589504242 -0.0304313991218805313
-0.00613413006067276001 0.0546372011303901672 -0.0326349996030330658
-0.0346693992614746094 0.0571240000426769257 -0.0114952996373176575
-0.00684543000534176826 0.0679742023348808289 -0.0359405986964702606
0.0056557999923825264 0.0676236972212791443 -0.0329198986291885376
-0.0569732002913951874 0.0651628002524375916 -0.00958218984305858612
-0.0422796010971069336 0.0699943974614143372 -0.0161463003605604172
-0.0175719000399112701 0.0705472975969314575 -0.0382261015474796295
-0.0555859990417957306 0.0722983032464981079 -0.0161217991262674332
-0.0637883991003036499 0.071269698441028595 -0.0138534996658563614
0.00568561023101210594 0.0790546983480453491 -0.0339188985526561737
-0.00338429003022611141 0.0804511010646820068 -0.0367226004600524902
-0.0248987991362810135 0.0815004035830497742 -0.0371077992022037506
-0.0412513017654418945 0.0791378021240234375 -0.0197746008634567261
-0.0735818967223167419 0.0777025967836380005 -0.0122023001313209534
-0.0180619992315769196 0.0352627001702785492 -0.0195400994271039963
-0.0315769985318183899 0.0358486995100975037 -0.0179669000208377838
-0.00602034013718366623 0.0381237007677555084 -0.0145183997228741646
-0.0177810993045568466 0.0382546000182628632 -0.0154502997174859047
0.00753446994349360466 0.0355595983564853668 -0.00650063017383217812
0.00430436991155147552 0.0384017005562782288 -0.00717539992183446884
-0.00593934999778866768 0.0389479994773864746 -0.00592128979042172432
-0.0176142007112503052 0.0386055000126361847 -0.00584508012980222702
-0.0430307984352111816 0.0341391004621982574 -0.00565971992909908295
0.0189222004264593124 0.0351076014339923859 0.00499769020825624466
-0.0299129001796245575 0.0383911989629268646 -0.0058267698623239994
0.00512066017836332321 0.0348398014903068542 0.00558497989550232887
0.00103527994360774755 0.0375916995108127594 0.000952221977058798075
-0.00584714021533727646 0.0383418984711170197 0.00590803008526563644
-0.0424620993435382843 0.0343144014477729797 0.00590596999973058701
-0.0178730003535747528 0.0383166000247001648 0.00599471013993024826
0.0286619998514652252 0.0358410999178886414 0.018749600276350975
-0.0550259985029697418 0.0336203984916210175 0.00583815993741154671
-0.0284733008593320847 0.0381488986313343048 0.00441853003576397896
-0.00094700598856434226 0.0357373990118503571 0.0103468997403979301
0.0193224009126424789 0.0351813994348049164 0.0196615997701883316
-0.0342325009405612946 0.0337590016424655914 0.00717516988515853882
0.00536022009328007698 0.0345956012606620789 0.0179871004074811935
-0.000385713996365666389 0.0351459011435508728 0.0134170996025204659
0.033411901444196701 0.037617899477481842 0.021008199080824852
-0.00589790986850857735 0.0381782017648220062 0.0177062004804611206
-0.0352444984018802643 0.0350571013987064362 0.0178257003426551819
-0.0178078003227710724 0.0381961986422538757 0.0178114008158445358
-0.026189800351858139 0.0377591997385025024 0.0177043993026018143
-0.0563247017562389374 0.0336761996150016785 0.0175264999270439148
0.00114114000461995602 0.0376610010862350464 0.0223414003849029541
0.0100253000855445862 0.0355028994381427765 0.0296560004353523254
0.00550126982852816582 0.0385555997490882874 0.0296608991920948029
-0.00596580980345606804 0.0388946011662483215 0.0299251992255449295
-0.033074498176574707 0.0355217009782791138 0.0292236004024744034
-0.0277717001736164093 0.0382562987506389618 0.0322864986956119537
-0.017909100279211998 0.0385902002453804016 0.0296167004853487015
-0.0419403985142707825 0.0343698002398014069 0.0299667995423078537
0.0152430003508925438 0.0356115996837615967 0.041269201785326004
-0.0554300993680953979 0.0342555008828639984 0.0297951996326446533
-0.0660514980554580688 0.0611144006252288818 0.00585548020899295807
-0.00654911994934082031 0.0350372008979320526 0.0453958995640277863
-0.0307826008647680283 0.0347595997154712677 0.0432959012687206268
-0.018083399161696434 0.034814201295375824 0.0458771996200084686
